Normalized EMG Linear Envelopes
nRows=111
nColumns=4

endheader
time	 med_gas_r	  soleus_r	 tib_ant_r	
2.43347	  0.003104	  0.004715	  0.001489	
2.50504	  0.002852	  0.004607	  0.001462	
2.57661	  0.002760	  0.004623	  0.001459	
2.64819	  0.002891	  0.004785	  0.001492	
2.71976	  0.003143	  0.004980	  0.001538	
2.79133	  0.003346	  0.005091	  0.001567	
2.8629	  0.003419	  0.005102	  0.001559	
2.93448	  0.003353	  0.005068	  0.001515	
3.00605	  0.003163	  0.005033	  0.001461	
3.07762	  0.002924	  0.005004	  0.001416	
3.14919	  0.002761	  0.004960	  0.001384	
3.22077	  0.002734	  0.004880	  0.001372	
3.29234	  0.002798	  0.004769	  0.001387	
3.36391	  0.002877	  0.004661	  0.001422	
3.43548	  0.002946	  0.004614	  0.001454	
3.50706	  0.003001	  0.004681	  0.001472	
3.57863	  0.003016	  0.004851	  0.001473	
3.6502	  0.002983	  0.005013	  0.001448	
3.72177	  0.002935	  0.005063	  0.001413	
3.79335	  0.002910	  0.005022	  0.001411	
3.86492	  0.002926	  0.004991	  0.001465	
3.93649	  0.002969	  0.005019	  0.001544	
4.00806	  0.003000	  0.005054	  0.001606	
4.07964	  0.002996	  0.005007	  0.001643	
4.15121	  0.003021	  0.004907	  0.001665	
4.22278	  0.003207	  0.004966	  0.001672	
4.29435	  0.003665	  0.005376	  0.001662	
4.36593	  0.004191	  0.005911	  0.001628	
4.4375	  0.003912	  0.005630	  0.001553	
4.50907	  0.001333	  0.002986	  0.001396	
4.58065	 -0.004685	 -0.003231	  0.001140	
4.65222	 -0.012273	 -0.011184	  0.000912	
4.72379	 -0.012486	 -0.011665	  0.001140	
4.79536	  0.013242	  0.014769	  0.002584	
4.86694	  0.085240	  0.090350	  0.005921	
4.93851	  0.200680	  0.211671	  0.010620	
5.01008	  0.318338	  0.329849	  0.014649	
5.08165	  0.389372	  0.392326	  0.016682	
5.15323	  0.402078	  0.398042	  0.017676	
5.2248	  0.381163	  0.379121	  0.018778	
5.29637	  0.356545	  0.357273	  0.019651	
5.36794	  0.348594	  0.341854	  0.019945	
5.43952	  0.369430	  0.338339	  0.020190	
5.51109	  0.418031	  0.346622	  0.020936	
5.58266	  0.471897	  0.361829	  0.022303	
5.65423	  0.501841	  0.377698	  0.023963	
5.72581	  0.506476	  0.391427	  0.025307	
5.79738	  0.510668	  0.406122	  0.026090	
5.86895	  0.525936	  0.425343	  0.026595	
5.94052	  0.544873	  0.447829	  0.027305	
6.0121	  0.565971	  0.468310	  0.028592	
6.08367	  0.594439	  0.479325	  0.030292	
6.15524	  0.631122	  0.478331	  0.031781	
6.22681	  0.667638	  0.474796	  0.032709	
6.29839	  0.687300	  0.478088	  0.033138	
6.36996	  0.679258	  0.482204	  0.033109	
6.44153	  0.649142	  0.475028	  0.032809	
6.5131	  0.613698	  0.455420	  0.032711	
6.58468	  0.591003	  0.434611	  0.032854	
6.65625	  0.591995	  0.425378	  0.032612	
6.72782	  0.612499	  0.428857	  0.031625	
6.7994	  0.629346	  0.435755	  0.030287	
6.87097	  0.618733	  0.441561	  0.029152	
6.94254	  0.586590	  0.447534	  0.028567	
7.01411	  0.558983	  0.452701	  0.028686	
7.08569	  0.549180	  0.456646	  0.029255	
7.15726	  0.557401	  0.457024	  0.029744	
7.22883	  0.577408	  0.448113	  0.029815	
7.3004	  0.592648	  0.436103	  0.029510	
7.37198	  0.591391	  0.439301	  0.029260	
7.44355	  0.580239	  0.465953	  0.029637	
7.51512	  0.573607	  0.504046	  0.030819	
7.58669	  0.579226	  0.532546	  0.032266	
7.65827	  0.592871	  0.539840	  0.033159	
7.72984	  0.603150	  0.530402	  0.033053	
7.80141	  0.601321	  0.513661	  0.031949	
7.87298	  0.589245	  0.495410	  0.030345	
7.94456	  0.579147	  0.484196	  0.029218	
8.01613	  0.581669	  0.492275	  0.029168	
8.0877	  0.594961	  0.518944	  0.029835	
8.15927	  0.606355	  0.546239	  0.030448	
8.23085	  0.602570	  0.561650	  0.030615	
8.30242	  0.581538	  0.570828	  0.030659	
8.37399	  0.553329	  0.583630	  0.031140	
8.44556	  0.526055	  0.601337	  0.031925	
8.51714	  0.499482	  0.615080	  0.032160	
8.58871	  0.475621	  0.611606	  0.031170	
8.66028	  0.464303	  0.592854	  0.029094	
8.73185	  0.471475	  0.580224	  0.026797	
8.80343	  0.490566	  0.584430	  0.025401	
8.875	  0.518778	  0.595702	  0.025778	
8.94657	  0.568175	  0.607361	  0.028096	
9.01815	  0.641438	  0.620913	  0.031706	
9.08972	  0.716963	  0.636192	  0.035571	
9.16129	  0.770733	  0.650560	  0.038790	
9.23286	  0.793416	  0.656739	  0.040996	
9.30444	  0.782467	  0.645280	  0.042193	
9.37601	  0.723364	  0.608914	  0.041689	
9.44758	  0.590566	  0.533884	  0.037723	
9.51915	  0.391326	  0.410641	  0.029669	
9.59073	  0.189248	  0.262415	  0.019856	
9.6623	  0.050837	  0.133478	  0.011532	
9.73387	 -0.009983	  0.050086	  0.006088	
9.80544	 -0.020527	  0.009804	  0.003149	
9.87702	 -0.011968	 -0.002815	  0.001857	
9.94859	 -0.002214	 -0.002537	  0.001451	
10.0202	  0.003164	  0.001148	  0.001417	
10.0917	  0.004847	  0.004003	  0.001488	
10.1633	  0.004685	  0.005180	  0.001545	
10.2349	  0.003659	  0.005198	  0.001564	
10.3065	  0.002254	  0.004757	  0.001560	
